<svg width="549" height="332" viewBox="0 0 549 332" fill="none" xmlns="http://www.w3.org/2000/svg">
<path d="M549 0V0.80074C536.916 4.65192 524.832 9.07506 514.235 15.9004C497.348 26.7676 491.363 43.1256 485.035 60.4369C483.434 64.86 481.757 69.3975 479.889 73.8969C474.59 86.6325 467.538 97.1565 458.923 105.24C447.335 116.069 434.832 120.912 417.144 125.64C388.669 133.266 359.164 138.452 330.612 143.485C317.08 145.887 303.128 148.328 289.443 151.035C252.657 158.28 214.08 167.088 182.365 188.06C157.739 204.341 142.758 227.601 128.311 252.043C120.992 264.435 112.911 277.476 102.123 288.419C86.7605 304.053 67.2432 312.251 50.1656 318.237C34.8414 323.614 19.1742 328.037 3.35454 331.774H0C16.887 327.884 33.6216 323.232 49.9368 317.513C66.9382 311.564 86.3411 303.404 101.589 287.885C112.339 276.98 120.344 264.016 127.663 251.623C142.148 227.143 157.206 203.769 181.945 187.411C213.775 166.363 252.429 157.517 289.29 150.272C302.975 147.603 316.965 145.125 330.46 142.722C358.973 137.689 388.478 132.504 416.915 124.877C434.488 120.187 446.915 115.383 458.39 104.668C466.928 96.699 473.942 86.2512 479.165 73.63C481.033 69.1687 482.672 64.5931 484.311 60.2081C490.677 42.7824 496.7 26.31 513.816 15.2903C524.565 8.35058 536.764 3.88931 549 0Z" fill="url(#paint0_linear_644_7563)"/>
<path d="M549 7.20654V8.00729C538.708 11.6678 528.682 15.9766 519.686 21.963C503.295 32.8302 496.814 48.7688 489.953 65.6225C488.161 70.0075 486.331 74.545 484.311 79.0063C478.707 91.3224 471.35 101.503 462.507 109.206C451.299 118.967 437.119 123.009 423.396 126.86C395.568 134.753 366.674 140.282 338.694 145.658C325.809 148.137 312.505 150.692 299.507 153.437C260.243 161.749 222.352 170.939 190.599 192.216C165.783 208.841 150.382 232.939 136.735 256.237C129.493 268.629 121.488 281.594 110.967 292.537C96.9385 307.103 77.6881 315.415 59.0094 322.241C49.2507 325.787 39.3015 328.952 29.2379 331.735H26.3408C37.2812 328.761 48.1072 325.406 58.7044 321.516C77.3069 314.729 96.443 306.455 110.357 292.003C120.84 281.136 128.768 268.172 136.011 255.817C149.696 232.482 165.173 208.269 190.103 191.568C221.933 170.214 259.9 160.987 299.278 152.674C312.277 149.929 325.619 147.374 338.503 144.896C366.445 139.519 395.378 133.99 423.167 126.097C436.814 122.246 450.88 118.243 461.973 108.596C470.74 100.931 478.021 90.8649 483.587 78.625C485.607 74.1637 487.437 69.6643 489.228 65.2793C496.128 48.3112 502.609 32.2964 519.229 21.2767C528.377 15.2521 538.594 10.9052 549 7.20654Z" fill="url(#paint1_linear_644_7563)"/>
<path d="M549 14.375V15.2139C540.88 18.4931 533.027 22.3061 525.785 27.0725C509.203 37.9778 502.036 53.7638 494.45 70.4268C492.392 75.0025 490.219 79.6926 487.894 84.3445C481.49 96.9657 473.637 106.803 464.603 113.591C454.958 120.835 441.883 124.648 430.333 128.042C429.494 128.271 428.694 128.538 427.893 128.767C401.629 136.507 374.221 142.112 347.728 147.527C334.348 150.272 320.51 153.094 306.978 156.144C267.524 165.105 229.518 174.904 198.07 196.181C173.063 213.111 157.663 237.248 144.016 260.469L143.368 261.575C136.125 273.967 128.615 286.741 118.323 296.808C104.104 310.725 83.5961 319.533 65.4511 326.321C60.3049 328.227 55.0825 330.057 49.822 331.735H47.3442C53.3672 329.829 59.3138 327.808 65.2224 325.596C83.3293 318.847 103.723 310.077 117.828 296.274C128.044 286.284 135.515 273.548 142.72 261.194L143.368 260.088C157.053 236.752 172.529 212.577 197.688 195.571C229.251 174.218 267.333 164.419 306.863 155.42C320.358 152.331 334.233 149.51 347.613 146.802C374.106 141.388 401.476 135.783 427.703 128.042C428.503 127.813 429.342 127.546 430.142 127.318C441.616 123.962 454.615 120.149 464.183 112.98C473.141 106.27 480.88 96.5081 487.246 84.0013C489.609 79.3494 491.744 74.6593 493.802 70.1218C501.426 53.3444 508.631 37.4821 525.404 26.4242C532.761 21.5817 540.766 17.7305 549 14.375Z" fill="url(#paint2_linear_644_7563)"/>
<path d="M549 21.5815V22.4204C543.015 25.1658 537.221 28.2544 531.732 31.8768C514.959 42.8584 507.03 58.4537 498.606 74.9643C496.166 79.7306 493.65 84.6494 490.905 89.5301C483.625 102.38 475.848 111.188 467.119 116.45C456.026 123.161 443.637 127.432 431.896 131.054C407.309 138.604 381.616 144.057 356.762 149.319C342.734 152.293 328.249 155.343 314.182 158.775C272.975 168.765 236.304 178.755 204.969 199.994C179.62 217.191 164.143 241.251 150.458 264.473L149.2 266.608C141.996 278.848 134.524 291.507 123.47 300.735C109.632 312.289 92.402 321.897 70.8262 330.134C69.3396 330.706 67.891 331.239 66.4043 331.773H64.1553C66.29 331.011 68.4247 330.21 70.5594 329.409C92.0589 321.211 109.213 311.64 123.012 300.125C133.991 290.974 141.424 278.391 148.59 266.189L149.848 264.053C163.571 240.794 179.124 216.619 204.588 199.346C235.999 178.031 272.746 168.003 314.03 158.012C328.134 154.619 342.62 151.53 356.648 148.556C381.464 143.294 407.156 137.841 431.706 130.292C443.408 126.707 455.721 122.437 466.737 115.764C475.353 110.578 483.015 101.846 490.257 89.1107C493.002 84.2681 495.518 79.3493 497.958 74.5829C506.42 57.9962 514.425 42.2864 531.35 31.1904C536.954 27.5299 542.863 24.3651 549 21.5815Z" fill="url(#paint3_linear_644_7563)"/>
<path d="M549 28.7881V29.6651C545.112 31.686 541.3 33.8976 537.602 36.2998C520.639 47.3576 511.795 62.8005 502.494 79.1203C499.635 84.1536 496.661 89.3393 493.383 94.487C478.936 117.213 456.979 126.745 435.403 133.647C412.417 141.006 388.363 146.192 365.072 151.225C350.587 154.352 335.606 157.593 321.044 161.292C287.156 169.947 244.995 180.738 211.259 203.578C185.49 220.966 169.251 246.018 156.024 268.095C148.552 280.564 140.204 293.643 127.396 304.243C114.511 314.881 98.9204 323.88 79.7462 331.773H77.6877C97.5862 323.766 113.673 314.576 126.862 303.671C139.556 293.185 147.904 280.144 155.338 267.752C168.603 245.598 184.919 220.47 210.802 202.93C244.652 179.976 286.889 169.223 320.815 160.529C335.377 156.792 350.358 153.589 364.882 150.463C388.135 145.429 412.188 140.244 435.136 132.922C456.598 126.059 478.402 116.641 492.697 94.1056C495.937 88.9962 498.91 83.8104 501.769 78.7772C511.147 62.3811 519.991 46.9001 537.145 35.7278C540.995 33.135 544.959 30.8471 549 28.7881Z" fill="url(#paint4_linear_644_7563)"/>
<path d="M549 36.0332V36.9102C547.209 37.9397 545.417 39.0455 543.664 40.1513C526.243 51.3617 516.446 66.7283 506.039 82.9719C502.761 88.1195 499.368 93.4577 495.671 98.6816C480.423 120.378 457.894 130.025 437.843 136.621C416.382 143.676 393.891 148.518 372.163 153.246C357.373 156.449 342.048 159.767 327.22 163.732C291.311 173.341 250.599 184.246 217.016 206.858C193.382 222.758 177.524 244.073 160.942 271.184C151.374 286.894 139.557 300.011 124.88 311.259C114.779 319 103.457 325.749 90.5346 331.735H88.7048C121.03 317.093 143.978 297.532 160.294 270.803C176.914 243.616 192.81 222.224 216.596 206.248C250.294 183.56 291.082 172.655 327.029 163.046C341.896 159.08 357.22 155.763 372.01 152.56C393.701 147.87 416.153 142.989 437.615 135.973C457.551 129.415 479.966 119.844 495.061 98.3003C498.72 93.0764 502.113 87.7763 505.391 82.6287C515.836 66.2707 525.671 50.8278 543.244 39.5793C545.15 38.321 547.056 37.139 549 36.0332Z" fill="url(#paint5_linear_644_7563)"/>
<path d="M549 43.354V44.2691C531.655 55.4414 521.02 70.4648 509.775 86.3652C505.848 91.9323 501.77 97.69 497.348 103.295C484.616 119.539 467.081 130.825 440.549 139.824C420.27 146.688 399.075 151.225 378.529 155.61C363.776 158.775 348.49 162.016 333.7 166.134C295.466 176.735 255.936 187.716 222.276 210.099C196.621 227.143 179.544 251.051 164.906 274.349C155.414 289.448 142.987 302.832 128.006 314.157C119.467 320.563 109.899 326.473 99.416 331.773H97.7388C127.205 317.169 149.048 298.142 164.258 273.967C178.934 250.593 196.049 226.609 221.857 209.489C255.631 187.068 295.237 176.086 333.509 165.448C348.338 161.33 363.624 158.089 378.376 154.924C398.884 150.539 420.079 146.039 440.282 139.176C466.699 130.215 484.12 119.043 496.738 102.914C501.121 97.3087 505.2 91.551 509.127 85.9839C520.524 69.8166 531.274 54.6406 549 43.354Z" fill="url(#paint6_linear_644_7563)"/>
<path d="M549 50.7896V51.7428C534.134 62.6863 523.422 76.4133 512.177 90.8266C507.679 96.5843 503.028 102.533 498.111 108.328C469.635 141.655 425.531 150.386 382.875 158.851C367.665 161.864 353.294 164.724 339.609 168.613L339.266 168.727C300.765 179.747 260.93 191.11 227.118 213.149C203.064 228.821 186.177 249.983 168.261 276.98C153.585 299.095 133.534 317.207 107.574 331.735H106.24C130.408 318.351 151.602 300.659 167.613 276.56C185.605 249.488 202.53 228.249 226.698 212.501C260.625 190.423 300.498 179.022 339.075 168.003L339.418 167.888C353.141 163.961 367.512 161.101 382.76 158.089C425.302 149.662 469.292 140.93 497.577 107.833C502.494 102.037 507.145 96.0886 511.643 90.369C523.003 75.765 533.829 61.8855 549 50.7896Z" fill="url(#paint7_linear_644_7563)"/>
<path d="M549 58.416V59.3693C533.638 71.571 521.401 86.4038 508.593 101.923C505.848 105.24 503.028 108.672 500.169 112.028C487.665 126.898 469.863 138.071 444.209 147.184C419.66 155.916 393.776 161.292 368.77 166.44C361.184 168.003 353.37 169.643 345.669 171.32C323.979 176.087 301.984 184.094 283.039 191.263C262.187 199.118 245.796 207.011 231.463 216.124C204.626 233.168 187.244 256.161 170.357 280.221C156.024 300.659 137.193 317.703 113.444 331.697H112.072C134.41 318.657 154.194 301.917 169.747 279.764C186.672 255.627 204.131 232.558 231.082 215.476C245.453 206.362 261.882 198.431 282.772 190.538C301.717 183.408 323.751 175.362 345.517 170.596C353.217 168.918 361.032 167.279 368.617 165.715C393.624 160.53 419.431 155.191 443.942 146.497C469.482 137.422 487.132 126.288 499.559 111.532C502.38 108.176 505.238 104.745 507.945 101.427C520.982 85.7556 533.371 70.7322 549 58.416Z" fill="url(#paint8_linear_644_7563)"/>
<path d="M549 66.1182V67.1095C534.401 79.3113 522.012 93.534 509.127 108.329C507.107 110.655 505.048 113.019 502.99 115.383C489.991 130.177 471.579 141.845 446.763 150.959C417.564 161.711 386.42 168.079 356.305 174.218L350.435 175.438C308.046 184.132 267.296 199.651 235.695 219.098C222.124 227.448 209.926 237.248 199.519 248.191C192.047 256.008 185.758 264.778 179.697 273.281C177.028 276.98 174.284 280.831 171.463 284.568C156.672 304.129 138.68 319.457 118.667 331.773H117.219C137.574 319.419 155.872 303.938 170.891 284.11C173.712 280.373 176.457 276.56 179.125 272.862C185.224 264.359 191.514 255.589 199.023 247.696C209.506 236.676 221.743 226.838 235.351 218.45C267.029 198.965 307.855 183.408 350.359 174.714L356.229 173.532C386.306 167.393 417.449 161.025 446.573 150.272C471.274 141.197 489.572 129.605 502.494 114.887C504.553 112.523 506.611 110.197 508.632 107.833C521.63 92.8476 534.172 78.4343 549 66.1182Z" fill="url(#paint9_linear_644_7563)"/>
<path d="M549 74.0493V75.0407C536.992 85.4885 526.205 97.0801 515.074 109.053C511.948 112.409 508.67 115.917 505.429 119.348C471.16 155.572 417.449 166.668 370.066 176.43C364.882 177.497 360.003 178.527 355.123 179.556C308.884 189.432 271.107 203.312 239.659 221.958C225.631 230.27 212.975 239.993 202.111 250.822C194.906 257.991 188.921 266.227 183.165 274.158C179.963 278.581 176.647 283.119 173.14 287.504C159.493 304.472 142.949 319.114 123.203 331.697H121.678C140.662 319.8 157.968 305.235 172.568 287.046C176.075 282.699 179.353 278.124 182.594 273.739C188.388 265.77 194.411 257.495 201.615 250.289C212.556 239.421 225.211 229.66 239.316 221.309C270.841 202.625 308.694 188.708 355.009 178.794C359.926 177.726 364.806 176.735 369.99 175.667C417.258 165.906 470.855 154.848 504.972 118.815C508.212 115.383 511.49 111.875 514.616 108.519C525.823 96.3938 536.764 84.6496 549 74.0493Z" fill="url(#paint10_linear_644_7563)"/>
<path d="M549 81.1411V82.1325C545.036 85.4499 541.148 88.9197 537.298 92.5421C531.656 97.8423 526.434 103.638 521.402 109.243C516.904 114.238 512.253 119.424 507.297 124.19C491.02 140.015 470.131 152.445 443.409 162.168C419.851 170.748 394.806 176.2 370.6 181.501C366.712 182.339 362.824 183.178 358.974 184.055C325.81 191.415 282.696 202.739 243.509 224.969C228.985 233.206 215.872 242.776 204.513 253.377C197.537 259.897 191.666 267.904 185.986 275.683C182.441 280.564 178.744 285.559 174.855 290.173C161.475 305.882 145.694 319.686 127.244 331.735H125.757C143.597 320.219 160.027 306.416 174.284 289.639C178.172 285.063 181.831 280.068 185.377 275.187C191.056 267.409 196.965 259.363 203.979 252.767C215.377 242.09 228.528 232.519 243.128 224.245C282.391 201.977 325.581 190.652 358.821 183.255C362.671 182.416 366.521 181.539 370.448 180.7C419.66 169.947 470.55 158.851 506.764 123.618C511.681 118.852 516.332 113.666 520.83 108.671C525.9 103.066 531.122 97.2322 536.764 91.932C540.767 88.2334 544.845 84.611 549 81.1411Z" fill="url(#paint11_linear_644_7563)"/>
<path d="M549 88.9966V89.988C546.637 91.9708 544.312 93.9917 541.948 96.0888C536.04 101.313 530.627 107.185 525.366 112.866C520.525 118.128 515.493 123.543 510.118 128.462C471.465 163.771 419.965 175.553 370.143 186.954C367.589 187.526 365.073 188.098 362.557 188.708C318.3 198.889 281.781 209.489 247.435 227.982C232.912 235.799 217.854 244.417 207.143 256.199C201.692 262.185 196.507 268.668 191.476 274.883C186.711 280.793 181.831 286.932 176.647 292.69C163.534 307.256 148.438 320.258 131.132 331.774H129.798C146.532 320.716 162.123 307.675 176.075 292.156C181.221 286.436 186.139 280.335 190.866 274.387C195.897 268.134 201.082 261.652 206.571 255.665C217.359 243.845 232.492 235.151 247.054 227.296C281.438 208.765 318.033 198.164 362.366 187.945C364.882 187.373 367.436 186.801 369.952 186.191C419.66 174.828 471.045 163.046 509.584 127.89C514.959 122.971 519.953 117.556 524.794 112.332C530.055 106.651 535.506 100.741 541.414 95.5169C543.968 93.2672 546.484 91.0938 549 88.9966Z" fill="url(#paint12_linear_644_7563)"/>
<path d="M549 96.8896V97.881C548.199 98.5674 547.399 99.2919 546.598 100.016C541.185 104.897 536.039 110.235 531.046 115.383C525.175 121.484 519.076 127.775 512.481 133.381C471.617 168.232 419.545 180.624 369.189 192.635L366.063 193.36C324.284 203.312 286.851 213.035 251.399 231.109C237.295 238.316 222.505 246.781 210.306 259.859C205.389 265.16 200.51 270.65 195.783 275.951C190.103 282.356 184.194 288.991 178.21 295.321C165.439 308.743 151.068 320.83 134.906 331.735H133.495C149.277 321.173 164.143 309.01 177.714 294.787C183.737 288.495 189.607 281.861 195.287 275.455C200.014 270.117 204.893 264.626 209.811 259.326C222.085 246.171 236.914 237.629 251.094 230.423C286.622 212.311 324.132 202.587 365.949 192.597L369.037 191.873C419.317 179.9 471.274 167.507 512.024 132.77C518.58 127.165 524.641 120.874 530.512 114.811C535.506 109.625 540.652 104.287 546.103 99.4063C547.056 98.6055 548.009 97.7285 549 96.8896Z" fill="url(#paint13_linear_644_7563)"/>
<path d="M549 106.918V107.986C539.546 117.289 527.462 128.729 514.311 139.138C495.365 154.162 473.027 166.325 446 176.277C422.785 184.857 399.266 190.843 370.943 197.821L368.007 198.546C330.459 207.773 291.615 217.344 255.745 234.426C238.972 242.434 225.668 251.699 212.555 264.549C206.723 270.269 200.929 276.294 195.363 282.09C190.446 287.199 185.338 292.499 180.23 297.609C167.574 310.192 154.003 321.555 139.67 331.697H138.336C152.974 321.44 166.812 309.887 179.696 297.075C184.804 292.003 189.912 286.703 194.83 281.594C200.433 275.76 206.189 269.773 212.06 264.016C225.211 251.128 238.591 241.786 255.44 233.74C291.387 216.581 330.231 207.049 367.817 197.783L370.752 197.058C420.079 184.933 471.121 172.35 513.815 138.49C527.195 127.966 539.47 116.298 549 106.918Z" fill="url(#paint14_linear_644_7563)"/>
<path d="M549 117.327V118.357C539.432 126.745 528.759 135.782 517.361 144.285C497.805 158.851 475.315 170.786 448.593 180.776C424.425 189.813 399.38 196.372 373.688 202.892L367.589 204.417C331.832 213.454 294.856 222.796 260.472 238.048C234.627 249.526 214.157 269.315 194.411 288.419C190.065 292.613 185.605 296.96 181.145 301.116C169.061 312.441 156.672 322.584 143.864 331.735H142.568C155.643 322.469 168.261 312.098 180.611 300.544C185.071 296.388 189.531 292.041 193.877 287.847C213.699 268.667 234.208 248.839 260.167 237.324C294.589 222.034 331.604 212.692 367.398 203.655L373.497 202.129C429.228 188.021 475.201 174.752 516.903 143.637C528.492 135.02 539.356 125.868 549 117.327Z" fill="url(#paint15_linear_644_7563)"/>
<path d="M549 127.051V128.042C539.585 135.592 529.94 143.142 519.953 150.082C476.573 180.433 429.343 194.237 376.547 207.926L370.638 209.451C335.644 218.526 299.469 227.868 265.695 241.976C238.744 253.225 216.482 273.434 194.944 292.995C191.094 296.465 187.13 300.087 183.242 303.519C171.615 313.852 159.912 323.232 148.095 331.735H146.799C158.883 323.08 170.853 313.547 182.746 302.947C186.634 299.477 190.599 295.893 194.449 292.423C216.063 272.824 238.363 252.538 265.428 241.252C299.24 227.143 335.454 217.763 370.448 208.688L376.356 207.163C429.076 193.474 476.268 179.709 519.572 149.433C529.636 142.417 539.432 134.715 549 127.051Z" fill="url(#paint16_linear_644_7563)"/>
<path d="M549 136.545V137.498C540.156 144.171 531.16 150.691 521.935 156.716C498.834 171.778 476.61 183.14 453.929 191.415C433.497 198.888 412.074 204.455 391.337 209.87C387.22 210.938 383.103 212.005 378.986 213.111C376.356 213.797 373.687 214.522 371.057 215.208C337.931 223.94 303.699 232.977 272.136 246.437C239.62 260.278 213.813 282.089 186.481 305.196L185.986 305.616C174.702 315.148 163.61 323.842 152.631 331.735H151.335C162.58 323.689 173.94 314.767 185.528 305.006L186.024 304.586C213.394 281.441 239.239 259.63 271.869 245.713C303.509 232.253 337.778 223.216 370.905 214.446C373.573 213.759 376.203 213.035 378.833 212.348C382.95 211.281 387.067 210.175 391.184 209.107C411.883 203.693 433.268 198.126 453.701 190.69C476.305 182.454 498.491 171.129 521.554 156.068C530.855 149.967 540.042 143.332 549 136.545Z" fill="url(#paint17_linear_644_7563)"/>
<path d="M549.001 146.573V147.488C541.148 152.75 532.99 158.012 524.795 163.046C500.436 177.993 477.488 189.165 454.616 197.287C435.671 203.998 415.887 209.222 396.75 214.255C391.795 215.551 386.687 216.886 381.655 218.259C343.802 228.439 310.219 239.116 278.961 250.898C245.072 263.672 216.902 285.14 188.693 307.865C177.829 316.597 167.46 324.528 157.435 331.735H156.139C166.431 324.338 177.067 316.216 188.236 307.255C216.521 284.491 244.691 262.948 278.732 250.136C309.99 238.353 343.612 227.677 381.503 217.496C386.534 216.161 391.642 214.789 396.598 213.492C415.734 208.459 435.48 203.273 454.426 196.562C477.221 188.479 500.131 177.306 524.452 162.397C532.723 157.288 541.034 151.912 549.001 146.573Z" fill="url(#paint18_linear_644_7563)"/>
<path d="M549 156.106V157.021C542.329 161.139 535.467 165.257 528.529 169.223C502.494 184.246 478.44 195.418 454.958 203.426C437.766 209.298 419.888 213.988 402.62 218.526C396.521 220.127 390.231 221.767 384.094 223.444C349.824 232.786 316.05 244.645 286.24 255.093C248.959 268.172 217.739 290.097 192.161 309.772C182.974 316.826 173.139 324.261 162.694 331.735H161.398C172.148 324.071 182.288 316.445 191.704 309.162C217.358 289.41 248.616 267.447 286.012 254.368C315.821 243.921 349.634 232.062 383.941 222.72C390.117 221.042 396.406 219.364 402.467 217.801C419.736 213.264 437.576 208.574 454.73 202.74C478.173 194.732 502.189 183.598 528.186 168.613C535.238 164.495 542.214 160.3 549 156.106Z" fill="url(#paint19_linear_644_7563)"/>
<path d="M549 165.677V166.554C543.434 169.719 537.983 172.731 532.608 175.667C504.933 190.69 479.698 201.786 455.454 209.679C440.092 214.674 424.196 218.793 408.795 222.796C401.514 224.703 393.967 226.647 386.571 228.668C355.695 237.133 324.97 247.886 295.237 258.258L293.293 258.944C259.862 270.612 228.946 287.389 196.011 311.678C186.786 318.504 177.599 325.215 168.336 331.773H167.002C176.57 325.024 186.062 318.084 195.554 311.068C228.527 286.741 259.518 269.964 293.026 258.258L294.97 257.571C324.703 247.162 355.504 236.447 386.381 227.982C393.776 225.961 401.324 223.978 408.605 222.11C423.967 218.106 439.863 213.988 455.187 209.031C479.393 201.176 504.59 190.08 532.227 175.057C537.754 172.006 543.32 168.918 549 165.677Z" fill="url(#paint20_linear_644_7563)"/>
<path d="M549 175.324V176.163C546.217 177.612 543.396 179.022 540.614 180.433L536.192 182.683C507.373 197.363 481.299 208.192 456.56 215.78C442.951 219.975 428.923 223.521 415.352 226.952C406.852 229.126 398.046 231.337 389.431 233.702C363.738 240.756 338.007 249.526 313.153 258.029C308.846 259.516 304.538 260.965 300.231 262.452C263.483 274.921 231.615 291.202 199.976 313.623C197.841 315.148 195.707 316.674 193.572 318.161C187.244 322.66 180.878 327.198 174.436 331.697H173.102C179.849 326.969 186.52 322.241 193.153 317.551C195.287 316.025 197.422 314.5 199.557 313.013C231.272 290.516 263.217 274.234 300.002 261.727C304.31 260.279 308.617 258.791 312.925 257.304C337.817 248.801 363.548 240.031 389.24 232.977C397.855 230.613 406.661 228.401 415.162 226.228C428.732 222.796 442.76 219.25 456.331 215.056C481.033 207.468 507.03 196.639 535.849 181.997L540.271 179.747C543.168 178.298 546.065 176.849 549 175.324Z" fill="url(#paint21_linear_644_7563)"/>
<path d="M549 184.856V185.695C545.607 187.335 542.253 188.936 539.013 190.462C509.775 204.341 483.472 214.598 458.656 221.805C446.42 225.351 433.802 228.401 421.642 231.338C411.96 233.702 401.934 236.104 392.175 238.773C370.295 244.721 348.3 252.042 327.067 259.135C320.549 261.308 313.801 263.558 307.13 265.731C268.02 278.543 235.465 294.291 204.665 315.301C197.956 319.877 191.17 324.567 184.614 329.104C183.356 329.981 182.136 330.82 180.878 331.697H179.544C181.107 330.629 182.631 329.562 184.194 328.494C190.751 323.957 197.536 319.266 204.245 314.691C235.122 293.605 267.753 277.819 306.902 265.007C313.535 262.833 320.282 260.584 326.8 258.41C348.071 251.318 370.066 243.997 391.947 238.049C401.743 235.379 411.769 232.977 421.451 230.613C433.612 227.677 446.191 224.627 458.428 221.08C483.205 213.912 509.47 203.655 538.669 189.775C542.062 188.174 545.493 186.534 549 184.856Z" fill="url(#paint22_linear_644_7563)"/>
<path d="M549 194.465V195.304C547.056 196.181 545.112 197.058 543.13 197.935C512.824 211.395 485.721 221.271 460.257 228.096C449.508 230.956 438.453 233.473 427.779 235.913C417.106 238.354 406.089 240.832 395.34 243.73C376.203 248.839 356.953 255.093 338.312 261.156C330.345 263.748 322.112 266.418 313.992 268.934C273.204 281.708 240.002 297.075 209.468 317.207C202.225 321.974 194.982 326.893 187.854 331.773H186.482C193.915 326.702 201.501 321.554 209.049 316.597C239.621 296.388 272.899 281.022 313.763 268.21C321.883 265.655 330.117 262.986 338.084 260.431C356.724 254.406 376.013 248.153 395.149 243.005C405.899 240.146 416.915 237.629 427.589 235.189C438.262 232.748 449.279 230.27 460.029 227.372C485.455 220.585 512.52 210.709 542.787 197.249C544.921 196.296 546.98 195.38 549 194.465Z" fill="url(#paint23_linear_644_7563)"/>
<path d="M549 204.15V204.989C548.847 205.066 548.657 205.142 548.504 205.218C516.102 218.716 488.542 228.02 461.706 234.502C452.366 236.752 442.76 238.773 433.535 240.679C422.442 242.967 410.968 245.369 399.799 248.229C392.976 249.983 386.19 252.309 379.634 254.559C375.021 256.16 370.256 257.762 365.491 259.211C357.791 261.499 349.939 263.71 342.353 265.846C335.339 267.79 328.058 269.849 320.929 271.946C279.379 284.301 244.233 299.934 213.432 319.8C207.371 323.728 201.31 327.731 195.287 331.773H193.915C200.242 327.503 206.608 323.27 213.013 319.152C243.851 299.248 279.074 283.576 320.701 271.184C327.829 269.087 335.11 267.028 342.124 265.083C349.71 262.948 357.562 260.774 365.263 258.448C370.028 257.037 374.754 255.398 379.367 253.834C385.924 251.585 392.709 249.259 399.57 247.505C410.739 244.607 422.213 242.243 433.344 239.917C442.608 238.01 452.176 235.989 461.515 233.74C488.275 227.257 515.836 217.954 548.199 204.494C548.466 204.379 548.733 204.265 549 204.15Z" fill="url(#paint24_linear_644_7563)"/>
<path d="M549 213.874V214.674C517.628 226.647 490.792 234.922 464.718 240.565C456.408 242.357 447.945 243.882 439.711 245.369C427.703 247.543 415.276 249.754 403.307 252.881C397.627 254.368 391.909 256.389 386.42 258.334C381.426 260.088 376.242 261.918 371.058 263.367C364.005 265.312 356.801 267.18 349.825 269.01C342.62 270.879 335.187 272.785 327.868 274.844C285.86 286.55 250.409 301.688 219.455 321.173C213.966 324.605 208.515 328.189 203.064 331.773H201.692C207.448 327.96 213.242 324.185 219.074 320.525C250.104 301.002 285.631 285.826 327.677 274.12C334.958 272.099 342.43 270.154 349.634 268.286C356.61 266.494 363.815 264.625 370.867 262.642C376.051 261.193 381.197 259.401 386.153 257.609C391.68 255.665 397.36 253.644 403.078 252.157C415.086 249.03 427.513 246.78 439.559 244.645C447.754 243.158 456.255 241.633 464.527 239.84C490.639 234.159 517.552 225.885 549 213.874Z" fill="url(#paint25_linear_644_7563)"/>
<path d="M549 223.559V224.36C518.733 234.884 492.583 242.052 467.348 246.819C460.677 248.077 453.624 248.954 446.763 249.831C433.574 251.509 419.927 253.225 407.766 257.61C389.698 264.168 370.905 268.782 352.76 273.243C346.889 274.692 340.828 276.179 334.843 277.743C292.645 288.648 256.889 303.328 225.554 322.66C220.751 325.634 215.986 328.647 211.221 331.773H209.811C214.881 328.456 219.989 325.177 225.135 322.012C256.507 302.642 292.34 287.923 334.615 277.018C340.6 275.493 346.661 273.968 352.531 272.519C370.676 268.057 389.431 263.405 407.461 256.885C419.66 252.462 433.383 250.746 446.61 249.068C453.434 248.191 460.524 247.314 467.157 246.056C492.468 241.328 518.657 234.121 549 223.559Z" fill="url(#paint26_linear_644_7563)"/>
<path d="M549 233.206V234.006C519.914 243.119 494.641 249.22 470.435 252.995C464.755 253.872 458.732 254.482 452.938 255.092C439.52 256.427 425.606 257.838 413.446 262.871C397.664 269.391 380.396 272.785 363.7 276.102C356.495 277.513 349.062 279 341.933 280.678C299.582 290.706 263.635 304.853 232.11 324.032C227.955 326.549 223.838 329.142 219.721 331.773H218.311C222.733 328.913 227.231 326.091 231.729 323.384C263.33 304.205 299.354 289.982 341.781 279.954C348.947 278.276 356.381 276.789 363.585 275.378C380.244 272.099 397.474 268.667 413.179 262.185C425.454 257.113 439.405 255.703 452.9 254.368C458.694 253.796 464.679 253.186 470.359 252.309C494.565 248.458 519.876 242.319 549 233.206Z" fill="url(#paint27_linear_644_7563)"/>
<path d="M549 243.234V244.035C538.556 247.086 527.73 249.373 517.132 251.585C515.646 251.89 514.159 252.233 512.672 252.538C499.521 255.36 486.332 257.571 473.523 259.135C465.442 260.126 457.208 260.851 449.241 261.537C447.03 261.728 444.857 261.918 442.646 262.109C441.541 262.223 440.359 262.3 439.254 262.338C435.899 262.567 432.392 262.757 429.343 263.71C427.475 264.282 425.645 265.198 423.853 266.075C422.367 266.837 420.804 267.6 419.241 268.172C403.879 273.815 387.297 276.675 371.286 279.458C363.967 280.717 356.42 282.051 349.139 283.576C306.597 292.652 270.688 306.15 239.43 324.872C235.733 327.083 232.073 329.333 228.414 331.659H227.003C230.968 329.104 235.008 326.626 239.049 324.224C270.422 305.463 306.368 291.927 349.024 282.814C356.305 281.25 363.891 279.954 371.21 278.658C387.22 275.874 403.764 273.014 419.05 267.371C420.575 266.799 422.1 266.036 423.586 265.312C425.416 264.397 427.284 263.482 429.19 262.91C432.316 261.956 435.861 261.728 439.254 261.499C440.435 261.423 441.541 261.346 442.646 261.27C444.857 261.079 447.03 260.889 449.241 260.698C457.208 260.012 465.442 259.287 473.485 258.296C486.293 256.733 499.483 254.521 512.596 251.737C514.083 251.432 515.569 251.089 517.056 250.784C527.653 248.611 538.517 246.285 549 243.234Z" fill="url(#paint28_linear_644_7563)"/>
<path d="M549 252.157V252.957C523.193 260.431 497.005 263.443 477.564 265.083C469.254 265.769 460.791 266.189 452.634 266.57C450.766 266.646 448.898 266.761 447.068 266.837C441.693 267.104 437.271 268.896 432.621 270.841C430.372 271.756 428.047 272.709 425.569 273.51C410.55 278.352 394.539 280.716 379.063 283.042C371.591 284.148 363.891 285.292 356.42 286.703C313.306 294.825 277.397 307.675 246.673 325.939C243.509 327.808 240.383 329.752 237.257 331.697H235.809C239.278 329.524 242.785 327.35 246.292 325.291C277.092 306.988 313.077 294.1 356.305 285.94C363.777 284.53 371.515 283.386 378.986 282.242C394.425 279.954 410.397 277.552 425.378 272.747C427.818 271.946 430.143 270.993 432.392 270.078C437.119 268.133 441.617 266.303 447.106 266.036C448.974 265.96 450.842 265.846 452.71 265.769C460.868 265.388 469.33 265.007 477.602 264.282C496.967 262.681 523.193 259.668 549 252.157Z" fill="url(#paint29_linear_644_7563)"/>
<path d="M549 260.66V261.461C529.102 266.761 507.068 269.811 481.719 270.955C477.945 271.108 473.981 270.994 470.13 270.879C464.336 270.727 458.313 270.536 452.786 271.299C448.898 271.832 444.933 273.625 441.045 275.379C438.11 276.713 435.06 278.086 432.049 278.925C417.411 282.966 401.972 284.873 387.068 286.741C379.444 287.695 371.515 288.686 363.853 289.944C320.93 296.96 285.25 308.933 254.792 326.512C251.857 328.227 248.922 329.943 245.987 331.774H244.538C247.816 329.753 251.095 327.77 254.411 325.863C284.945 308.247 320.701 296.274 363.738 289.22C371.439 287.962 379.329 286.97 386.991 286.017C401.896 284.149 417.297 282.242 431.858 278.238C434.832 277.438 437.843 276.065 440.74 274.73C444.666 272.976 448.707 271.146 452.672 270.574C458.313 269.811 464.336 269.964 470.169 270.117C473.981 270.231 477.945 270.345 481.681 270.193C507.068 269.049 529.102 265.96 549 260.66Z" fill="url(#paint30_linear_644_7563)"/>
<path d="M549 269.392V270.193C542.405 271.794 535.925 272.976 529.368 273.815C514.387 275.684 500.512 276.599 486.941 276.599C484.311 276.599 481.414 276.37 478.402 276.103C471.769 275.569 464.908 274.997 459.609 276.904C457.17 277.781 454.806 278.772 452.481 279.725C448.25 281.479 443.828 283.31 439.063 284.416C424.692 287.771 409.711 289.258 395.225 290.707C387.372 291.47 379.291 292.309 371.4 293.376C329.926 299.096 294.856 310.001 264.17 326.626C261.12 328.304 258.07 330.02 255.059 331.774H253.572C256.965 329.753 260.358 327.808 263.788 325.94C294.551 309.238 329.697 298.333 371.286 292.614C379.177 291.508 387.296 290.707 395.149 289.944C409.596 288.495 424.577 287.008 438.872 283.691C443.599 282.585 447.945 280.793 452.176 279.039C454.501 278.086 456.865 277.094 459.342 276.217C464.794 274.273 471.731 274.845 478.479 275.379C481.49 275.607 484.349 275.874 486.979 275.836C500.512 275.798 514.349 274.883 529.33 273.053C535.849 272.214 542.367 270.994 549 269.392Z" fill="url(#paint31_linear_644_7563)"/>
<path d="M549 278.009V278.771C544.692 279.648 540.271 280.335 535.811 280.754C520.41 282.165 506.344 282.584 492.811 281.974C490.677 281.898 488.618 281.707 486.636 281.517C480.118 280.945 473.98 280.411 467.691 283.309C461.553 286.131 454.577 288.304 446.42 289.867C432.315 292.613 417.678 293.68 403.535 294.748C395.492 295.358 387.182 295.968 379.062 296.883C338.274 301.497 303.814 311.297 273.661 326.816C270.612 328.379 267.6 330.019 264.589 331.735H263.064C266.457 329.79 269.849 327.922 273.318 326.129C303.547 310.572 338.084 300.735 378.986 296.121C387.105 295.206 395.416 294.596 403.459 293.985C417.601 292.918 432.201 291.85 446.267 289.105C454.349 287.541 461.248 285.406 467.348 282.584C473.828 279.61 480.079 280.144 486.674 280.716C488.656 280.907 490.715 281.059 492.811 281.174C506.306 281.746 520.334 281.364 535.696 279.953C540.232 279.572 544.654 278.924 549 278.009Z" fill="url(#paint32_linear_644_7563)"/>
<path d="M549 286.131V286.894C546.674 287.237 544.349 287.504 542.062 287.657C528.377 288.61 514.311 288.495 500.168 287.237C498.682 287.085 497.119 286.856 495.48 286.589C491.668 285.979 487.703 285.369 484.387 286.169C482.748 286.589 481.032 287.428 479.393 288.267C478.249 288.839 477.106 289.411 475.962 289.868C469.444 292.347 462.239 294.215 454.005 295.511C440.092 297.723 425.759 298.447 411.921 299.134C403.725 299.553 395.263 299.973 386.953 300.697C346.927 304.205 313.115 312.861 283.61 327.16C280.599 328.609 277.587 330.172 274.652 331.735H273.051C276.406 329.905 279.798 328.113 283.267 326.473C312.848 312.136 346.736 303.481 386.876 299.935C395.187 299.21 403.649 298.791 411.845 298.371C425.682 297.685 439.977 296.96 453.853 294.749C462.049 293.452 469.177 291.622 475.657 289.144C476.763 288.724 477.906 288.152 479.012 287.58C480.689 286.741 482.443 285.864 484.158 285.445C487.627 284.568 491.668 285.216 495.556 285.826C497.195 286.093 498.72 286.322 500.206 286.474C514.273 287.733 528.339 287.847 541.986 286.894C544.349 286.741 546.674 286.474 549 286.131Z" fill="url(#paint33_linear_644_7563)"/>
<path d="M549 293.147V293.91C535.277 295.778 520.41 294.024 507.487 292.194C501.922 291.431 499.139 291.012 493.993 293.071C490.562 294.405 487.665 295.473 484.882 296.35C477.907 298.562 470.435 300.163 462.087 301.193C448.249 302.947 434.031 303.328 420.308 303.709C411.998 303.938 403.421 304.205 394.996 304.739C355.428 307.255 322.073 314.92 293.064 328.113C290.51 329.257 287.994 330.477 285.516 331.735H283.839C286.774 330.21 289.748 328.761 292.759 327.388C321.844 314.157 355.275 306.493 394.958 303.938C403.383 303.404 411.998 303.175 420.308 302.909C434.031 302.527 448.211 302.108 462.011 300.392C470.321 299.362 477.716 297.761 484.692 295.549C487.436 294.672 490.334 293.643 493.764 292.308C499.101 290.211 502.151 290.631 507.64 291.393C520.486 293.262 535.353 295.016 549 293.147Z" fill="url(#paint34_linear_644_7563)"/>
<path d="M549 299.286V300.049C544.197 300.277 539.203 300.125 533.752 299.553C531.312 299.286 528.72 298.79 526.243 298.333C522.697 297.646 519.076 296.922 515.645 296.884C511.109 296.808 506.23 298.638 501.503 300.354C498.987 301.269 496.585 302.146 494.26 302.756C486.865 304.701 478.86 306.111 470.55 306.912C456.636 308.285 442.417 308.399 428.656 308.514C420.308 308.59 411.693 308.628 403.23 309.009C364.005 310.611 331.032 317.322 302.518 329.447C300.764 330.21 299.011 330.972 297.296 331.735H295.466C297.677 330.706 299.926 329.714 302.213 328.723C330.803 316.559 363.853 309.848 403.192 308.247C411.655 307.904 420.308 307.827 428.656 307.751C442.379 307.637 456.598 307.522 470.473 306.15C478.784 305.311 486.712 303.938 494.07 301.993C496.357 301.383 498.758 300.506 501.274 299.591C506.001 297.837 510.918 296.045 515.493 296.045H515.683C519.19 296.083 522.85 296.808 526.433 297.494C528.911 297.99 531.465 298.485 533.905 298.714C539.241 299.324 544.235 299.515 549 299.286Z" fill="url(#paint35_linear_644_7563)"/>
<path d="M549 304.624V305.387C546.865 305.311 544.768 305.12 542.71 304.815C541.261 304.624 539.851 304.357 538.479 304.091C534.476 303.328 530.664 302.642 526.585 303.442C521.134 304.51 515.721 305.806 510.461 307.065C500.435 309.467 490.028 311.984 479.241 312.784C465.098 313.852 450.689 313.699 436.737 313.585C428.465 313.509 419.888 313.394 411.502 313.585C372.467 314.386 339.875 320.143 311.819 331.239C311.4 331.392 310.942 331.583 310.523 331.773H308.502C309.494 331.354 310.523 330.934 311.552 330.553C339.684 319.457 372.353 313.661 411.502 312.861C419.926 312.708 428.465 312.784 436.775 312.861C450.689 313.013 465.098 313.166 479.202 312.06C489.952 311.259 500.283 308.742 510.308 306.34C515.569 305.082 520.982 303.785 526.471 302.718C530.702 301.879 534.552 302.603 538.631 303.366C540.003 303.633 541.414 303.862 542.824 304.091C544.845 304.357 546.903 304.548 549 304.624Z" fill="url(#paint36_linear_644_7563)"/>
<path d="M549 308.666V309.429C545.531 309.543 542.024 309.848 538.593 310.496C535.239 311.144 531.846 311.831 528.568 312.517C515.531 315.186 502.075 317.932 488.39 318.732C473.828 319.609 459.038 319.228 444.704 318.847C436.623 318.656 428.313 318.427 420.079 318.427C382.912 318.466 352.912 322.698 326.19 331.735H323.827C351.159 322.202 381.845 317.703 420.079 317.665C428.313 317.665 436.623 317.855 444.704 318.084C458.999 318.466 473.828 318.847 488.313 317.97C501.96 317.169 515.417 314.424 528.415 311.755C531.694 311.068 535.086 310.382 538.441 309.734C541.948 309.085 545.493 308.78 549 308.666Z" fill="url(#paint37_linear_644_7563)"/>
<path d="M549 316.94V317.703C544.921 318.351 540.842 319.038 536.84 319.724C524.413 321.859 511.567 324.033 498.644 324.681C483.205 325.444 467.538 324.872 452.367 324.261C444.666 323.956 436.699 323.651 428.847 323.537C396.521 323.041 369.685 325.634 345.86 331.697H342.849C367.436 325.1 395.187 322.241 428.847 322.774C436.699 322.889 444.666 323.194 452.405 323.499C467.576 324.071 483.244 324.681 498.644 323.918C511.528 323.27 524.337 321.097 536.764 318.961C540.728 318.313 544.883 317.589 549 316.94Z" fill="url(#paint38_linear_644_7563)"/>
<path d="M549 325.482V326.245C535.734 328.227 522.049 330.21 508.402 330.782C490.067 331.583 471.54 330.973 453.624 330.401C428.656 329.6 403.115 328.761 377.651 331.735H371.705C399.151 327.846 426.712 328.761 453.662 329.638C471.54 330.21 490.067 330.82 508.364 330.058C522.011 329.448 535.696 327.465 549 325.482Z" fill="url(#paint39_linear_644_7563)"/>
<defs>
<linearGradient id="paint0_linear_644_7563" x1="0.00400315" y1="165.893" x2="710.642" y2="-12.8074" gradientUnits="userSpaceOnUse">
<stop stop-color="#2DE76C"/>
<stop offset="1" stop-color="#3F5BE8"/>
</linearGradient>
<linearGradient id="paint1_linear_644_7563" x1="26.3446" y1="169.477" x2="705.016" y2="3.37638" gradientUnits="userSpaceOnUse">
<stop stop-color="#2DE76C"/>
<stop offset="1" stop-color="#3F5BE8"/>
</linearGradient>
<linearGradient id="paint2_linear_644_7563" x1="47.3479" y1="173.061" x2="700.098" y2="16.2609" gradientUnits="userSpaceOnUse">
<stop stop-color="#2DE76C"/>
<stop offset="1" stop-color="#3F5BE8"/>
</linearGradient>
<linearGradient id="paint3_linear_644_7563" x1="64.1588" y1="176.683" x2="695.801" y2="26.6492" gradientUnits="userSpaceOnUse">
<stop stop-color="#2DE76C"/>
<stop offset="1" stop-color="#3F5BE8"/>
</linearGradient>
<linearGradient id="paint4_linear_644_7563" x1="77.6912" y1="180.286" x2="692.017" y2="35.0642" gradientUnits="userSpaceOnUse">
<stop stop-color="#2DE76C"/>
<stop offset="1" stop-color="#3F5BE8"/>
</linearGradient>
<linearGradient id="paint5_linear_644_7563" x1="88.7082" y1="183.889" x2="688.631" y2="41.9761" gradientUnits="userSpaceOnUse">
<stop stop-color="#2DE76C"/>
<stop offset="1" stop-color="#3F5BE8"/>
</linearGradient>
<linearGradient id="paint6_linear_644_7563" x1="97.7421" y1="187.569" x2="685.57" y2="47.8034" gradientUnits="userSpaceOnUse">
<stop stop-color="#2DE76C"/>
<stop offset="1" stop-color="#3F5BE8"/>
</linearGradient>
<linearGradient id="paint7_linear_644_7563" x1="106.243" y1="191.267" x2="682.548" y2="53.2465" gradientUnits="userSpaceOnUse">
<stop stop-color="#2DE76C"/>
<stop offset="1" stop-color="#3F5BE8"/>
</linearGradient>
<linearGradient id="paint8_linear_644_7563" x1="112.075" y1="195.062" x2="679.889" y2="57.1021" gradientUnits="userSpaceOnUse">
<stop stop-color="#2DE76C"/>
<stop offset="1" stop-color="#3F5BE8"/>
</linearGradient>
<linearGradient id="paint9_linear_644_7563" x1="117.222" y1="198.95" x2="677.303" y2="60.6121" gradientUnits="userSpaceOnUse">
<stop stop-color="#2DE76C"/>
<stop offset="1" stop-color="#3F5BE8"/>
</linearGradient>
<linearGradient id="paint10_linear_644_7563" x1="121.681" y1="202.878" x2="674.665" y2="63.5022" gradientUnits="userSpaceOnUse">
<stop stop-color="#2DE76C"/>
<stop offset="1" stop-color="#3F5BE8"/>
</linearGradient>
<linearGradient id="paint11_linear_644_7563" x1="125.76" y1="206.442" x2="672.258" y2="66.1761" gradientUnits="userSpaceOnUse">
<stop stop-color="#2DE76C"/>
<stop offset="1" stop-color="#3F5BE8"/>
</linearGradient>
<linearGradient id="paint12_linear_644_7563" x1="129.801" y1="210.389" x2="669.574" y2="68.7537" gradientUnits="userSpaceOnUse">
<stop stop-color="#2DE76C"/>
<stop offset="1" stop-color="#3F5BE8"/>
</linearGradient>
<linearGradient id="paint13_linear_644_7563" x1="133.498" y1="214.317" x2="666.795" y2="70.9304" gradientUnits="userSpaceOnUse">
<stop stop-color="#2DE76C"/>
<stop offset="1" stop-color="#3F5BE8"/>
</linearGradient>
<linearGradient id="paint14_linear_644_7563" x1="138.339" y1="219.312" x2="663.078" y2="73.6256" gradientUnits="userSpaceOnUse">
<stop stop-color="#2DE76C"/>
<stop offset="1" stop-color="#3F5BE8"/>
</linearGradient>
<linearGradient id="paint15_linear_644_7563" x1="142.571" y1="224.535" x2="659.073" y2="75.7478" gradientUnits="userSpaceOnUse">
<stop stop-color="#2DE76C"/>
<stop offset="1" stop-color="#3F5BE8"/>
</linearGradient>
<linearGradient id="paint16_linear_644_7563" x1="146.802" y1="229.397" x2="655.025" y2="77.6368" gradientUnits="userSpaceOnUse">
<stop stop-color="#2DE76C"/>
<stop offset="1" stop-color="#3F5BE8"/>
</linearGradient>
<linearGradient id="paint17_linear_644_7563" x1="151.338" y1="234.143" x2="650.762" y2="79.5203" gradientUnits="userSpaceOnUse">
<stop stop-color="#2DE76C"/>
<stop offset="1" stop-color="#3F5BE8"/>
</linearGradient>
<linearGradient id="paint18_linear_644_7563" x1="156.142" y1="239.157" x2="645.911" y2="81.2417" gradientUnits="userSpaceOnUse">
<stop stop-color="#2DE76C"/>
<stop offset="1" stop-color="#3F5BE8"/>
</linearGradient>
<linearGradient id="paint19_linear_644_7563" x1="161.401" y1="243.924" x2="640.913" y2="83.1063" gradientUnits="userSpaceOnUse">
<stop stop-color="#2DE76C"/>
<stop offset="1" stop-color="#3F5BE8"/>
</linearGradient>
<linearGradient id="paint20_linear_644_7563" x1="167.005" y1="248.728" x2="635.511" y2="84.9857" gradientUnits="userSpaceOnUse">
<stop stop-color="#2DE76C"/>
<stop offset="1" stop-color="#3F5BE8"/>
</linearGradient>
<linearGradient id="paint21_linear_644_7563" x1="173.104" y1="253.513" x2="629.535" y2="86.7775" gradientUnits="userSpaceOnUse">
<stop stop-color="#2DE76C"/>
<stop offset="1" stop-color="#3F5BE8"/>
</linearGradient>
<linearGradient id="paint22_linear_644_7563" x1="179.546" y1="258.279" x2="623.166" y2="88.6609" gradientUnits="userSpaceOnUse">
<stop stop-color="#2DE76C"/>
<stop offset="1" stop-color="#3F5BE8"/>
</linearGradient>
<linearGradient id="paint23_linear_644_7563" x1="186.484" y1="263.122" x2="616.231" y2="90.7" gradientUnits="userSpaceOnUse">
<stop stop-color="#2DE76C"/>
<stop offset="1" stop-color="#3F5BE8"/>
</linearGradient>
<linearGradient id="paint24_linear_644_7563" x1="193.917" y1="267.964" x2="608.497" y2="92.6739" gradientUnits="userSpaceOnUse">
<stop stop-color="#2DE76C"/>
<stop offset="1" stop-color="#3F5BE8"/>
</linearGradient>
<linearGradient id="paint25_linear_644_7563" x1="201.694" y1="272.825" x2="599.888" y2="94.5695" gradientUnits="userSpaceOnUse">
<stop stop-color="#2DE76C"/>
<stop offset="1" stop-color="#3F5BE8"/>
</linearGradient>
<linearGradient id="paint26_linear_644_7563" x1="209.813" y1="277.668" x2="590.304" y2="96.4316" gradientUnits="userSpaceOnUse">
<stop stop-color="#2DE76C"/>
<stop offset="1" stop-color="#3F5BE8"/>
</linearGradient>
<linearGradient id="paint27_linear_644_7563" x1="218.313" y1="282.491" x2="579.537" y2="98.3257" gradientUnits="userSpaceOnUse">
<stop stop-color="#2DE76C"/>
<stop offset="1" stop-color="#3F5BE8"/>
</linearGradient>
<linearGradient id="paint28_linear_644_7563" x1="227.006" y1="287.448" x2="566.269" y2="99.7062" gradientUnits="userSpaceOnUse">
<stop stop-color="#2DE76C"/>
<stop offset="1" stop-color="#3F5BE8"/>
</linearGradient>
<linearGradient id="paint29_linear_644_7563" x1="235.811" y1="291.928" x2="553.207" y2="102.009" gradientUnits="userSpaceOnUse">
<stop stop-color="#2DE76C"/>
<stop offset="1" stop-color="#3F5BE8"/>
</linearGradient>
<linearGradient id="paint30_linear_644_7563" x1="244.54" y1="296.218" x2="538.942" y2="104.675" gradientUnits="userSpaceOnUse">
<stop stop-color="#2DE76C"/>
<stop offset="1" stop-color="#3F5BE8"/>
</linearGradient>
<linearGradient id="paint31_linear_644_7563" x1="253.574" y1="300.584" x2="521.43" y2="107.813" gradientUnits="userSpaceOnUse">
<stop stop-color="#2DE76C"/>
<stop offset="1" stop-color="#3F5BE8"/>
</linearGradient>
<linearGradient id="paint32_linear_644_7563" x1="263.066" y1="304.873" x2="500.972" y2="112.459" gradientUnits="userSpaceOnUse">
<stop stop-color="#2DE76C"/>
<stop offset="1" stop-color="#3F5BE8"/>
</linearGradient>
<linearGradient id="paint33_linear_644_7563" x1="273.053" y1="308.377" x2="483.375" y2="119.589" gradientUnits="userSpaceOnUse">
<stop stop-color="#2DE76C"/>
<stop offset="1" stop-color="#3F5BE8"/>
</linearGradient>
<linearGradient id="paint34_linear_644_7563" x1="283.841" y1="311.253" x2="469.316" y2="128.811" gradientUnits="userSpaceOnUse">
<stop stop-color="#2DE76C"/>
<stop offset="1" stop-color="#3F5BE8"/>
</linearGradient>
<linearGradient id="paint35_linear_644_7563" x1="295.468" y1="313.891" x2="456.609" y2="139.934" gradientUnits="userSpaceOnUse">
<stop stop-color="#2DE76C"/>
<stop offset="1" stop-color="#3F5BE8"/>
</linearGradient>
<linearGradient id="paint36_linear_644_7563" x1="308.504" y1="317.059" x2="438.707" y2="155.37" gradientUnits="userSpaceOnUse">
<stop stop-color="#2DE76C"/>
<stop offset="1" stop-color="#3F5BE8"/>
</linearGradient>
<linearGradient id="paint37_linear_644_7563" x1="323.829" y1="320.201" x2="420.665" y2="176.561" gradientUnits="userSpaceOnUse">
<stop stop-color="#2DE76C"/>
<stop offset="1" stop-color="#3F5BE8"/>
</linearGradient>
<linearGradient id="paint38_linear_644_7563" x1="342.85" y1="324.319" x2="394.369" y2="214.944" gradientUnits="userSpaceOnUse">
<stop stop-color="#2DE76C"/>
<stop offset="1" stop-color="#3F5BE8"/>
</linearGradient>
<linearGradient id="paint39_linear_644_7563" x1="371.706" y1="328.609" x2="384.179" y2="274.87" gradientUnits="userSpaceOnUse">
<stop stop-color="#2DE76C"/>
<stop offset="1" stop-color="#3F5BE8"/>
</linearGradient>
</defs>
</svg>
